0
SECTION
2
HEADER
9
$INSUNITS
70
4
9
$ACADVER
1
AC1014
9
$HANDSEED
5
FFFF
0
ENDSEC
0
SECTION
2
TABLES
0
TABLE
2
VPORT
5
8
100
AcDbSymbolTable
0
ENDTAB
0
TABLE
2
LTYPE
5
5
100
AcDbSymbolTable
0
LTYPE
5
14
100
AcDbSymbolTableRecord
100
AcDbLinetypeTableRecord
2
BYBLOCK
70
0
0
LTYPE
5
15
100
AcDbSymbolTableRecord
100
AcDbLinetypeTableRecord
2
BYLAYER
70
0
0
LTYPE
5
16
100
AcDbSymbolTableRecord
100
AcDbLinetypeTableRecord
2
DASHED
70
0
3
Dashed __ __ __ __ __ __ __ __ __ __ __ __ __ _
72
65
73
2
40
0.75
49
0.5
74
0
49
-0.25
74
0
0
ENDTAB
0
TABLE
2
LAYER
5
2
100
AcDbSymbolTable
70
3
0
LAYER
5
50
100
AcDbSymbolTableRecord
100
AcDbLayerTableRecord
2
1
70
0
62
7
6
DASHED
0
LAYER
5
51
100
AcDbSymbolTableRecord
100
AcDbLayerTableRecord
2
0
70
0
62
7
6
CONTINUOUS
0
ENDTAB
0
TABLE
2
STYLE
5
3
100
AcDbSymbolTable
70
1
0
STYLE
5
11
100
AcDbSymbolTableRecord
100
AcDbTextStyleTableRecord
2
STANDARD
70
0
0
ENDTAB
0
TABLE
2
VIEW
5
6
100
AcDbSymbolTable
70
0
0
ENDTAB
0
TABLE
2
UCS
5
7
100
AcDbSymbolTable
70
0
0
ENDTAB
0
TABLE
2
APPID
5
9
100
AcDbSymbolTable
70
2
0
APPID
5
12
100
AcDbSymbolTableRecord
100
AcDbRegAppTableRecord
2
ACAD
70
0
0
ENDTAB
0
TABLE
2
DIMSTYLE
5
A
100
AcDbSymbolTable
70
1
0
ENDTAB
0
TABLE
2
BLOCK_RECORD
5
1
100
AcDbSymbolTable
70
1
0
BLOCK_RECORD
5
1F
100
AcDbSymbolTableRecord
100
AcDbBlockTableRecord
2
*MODEL_SPACE
0
BLOCK_RECORD
5
1B
100
AcDbSymbolTableRecord
100
AcDbBlockTableRecord
2
*PAPER_SPACE
0
ENDTAB
0
ENDSEC
0
SECTION
2
BLOCKS
0
BLOCK
5
20
100
AcDbEntity
100
AcDbBlockBegin
2
*MODEL_SPACE
0
ENDBLK
5
21
100
AcDbEntity
100
AcDbBlockEnd
0
BLOCK
5
1C
100
AcDbEntity
100
AcDbBlockBegin
2
*PAPER_SPACE
0
ENDBLK
5
1D
100
AcDbEntity
100
AcDbBlockEnd
0
ENDSEC
0
SECTION
2
ENTITIES
0
CIRCLE
5
100
100
AcDbEntity
8
0
100
AcDbCircle
10
58.771406467100995
20
-28.492749447636491
30
0
40
5.7500000000000018
210
0
220
0
230
1
0
LWPOLYLINE
5
101
100
AcDbEntity
8
0
100
AcDbPolyline
90
4
70
1
43
0.0
10
56.691030964870365
20
-39.039527997019022
42
0.097684985426625973
10
60.85178196933137
20
-39.039527997019071
42
0.99999999999999989
10
60.174450410465674
20
-35.605693120475856
42
-0.097684985426626736
10
57.368362523736153
20
-35.605693120475827
42
0.99999999999999989
0
LWPOLYLINE
5
102
100
AcDbEntity
8
0
100
AcDbPolyline
90
4
70
1
43
0.0
10
60.17445041046593
20
-21.379805774796967
42
0.097684985426633716
10
57.368362523736124
20
-21.379805774796953
42
-0.99999999999999989
10
56.691030964870343
20
-17.945970898253755
42
-0.097684985426634133
10
60.851781969331313
20
-17.945970898253787
42
-0.99999999999999989
0
LWPOLYLINE
5
103
100
AcDbEntity
8
0
100
AcDbPolyline
90
11
70
1
43
0.0
10
12.221242580178444
20
-13.452718647717399
42
0.41421356237309515
10
7.2212425801784459
20
-18.452718647717397
10
7.221242580178445
20
-58.552718647717406
42
0.41421356237309531
10
12.221242580178444
20
-63.552718647717406
10
120.96818350295882
20
-63.552718647717406
42
0.41421356237309342
10
125.96818350295879
20
-58.552718647717406
10
125.96818350295882
20
-20.452718647717401
42
0.41421356237309243
10
120.96818350295884
20
-15.452718647717392
10
79.968183502958823
20
-15.452718647717402
42
-0.16227766016838066
10
76.968183502958823
20
-14.452718647717397
42
0.16227766016837922
10
73.968183502958823
20
-13.452718647717399
0
CIRCLE
5
104
100
AcDbEntity
8
0
100
AcDbCircle
10
87.721242580178455
20
-26.494718647717402
30
0
40
1.749999999999998
210
0
220
-0
230
1
0
LWPOLYLINE
5
105
100
AcDbEntity
8
0
100
AcDbPolyline
90
4
70
1
43
0.0
10
10.971242580178444
20
-24.794718647717403
10
16.471242580178441
20
-24.794718647717403
42
-0.99999999999999989
10
16.471242580178444
20
-28.294718647717406
10
10.971242580178453
20
-28.294718647717406
42
-0.99999999999999989
0
LWPOLYLINE
5
106
100
AcDbEntity
8
0
100
AcDbPolyline
90
4
70
1
43
0.0
10
10.971242580178444
20
-55.79471864771741
10
16.47124258017843
20
-55.79471864771741
42
-0.99999999999999989
10
16.471242580178441
20
-59.29471864771741
10
10.971242580178462
20
-59.29471864771741
42
-0.99999999999999989
0
CIRCLE
5
107
100
AcDbEntity
8
0
100
AcDbCircle
10
87.721242580178455
20
-57.494718647717406
30
0
40
1.749999999999998
210
0
220
-0
230
1
0
CIRCLE
5
108
100
AcDbEntity
8
0
100
AcDbCircle
10
118.72124258017845
20
-57.494718647717406
30
0
40
1.7500000000000071
210
0
220
-0
230
1
0
CIRCLE
5
109
100
AcDbEntity
8
0
100
AcDbCircle
10
118.72124258017845
20
-26.494718647717402
30
0
40
1.7500000000000071
210
0
220
-0
230
1
0
CIRCLE
5
110
100
AcDbEntity
8
0
100
AcDbCircle
10
103.22124258017844
20
-41.994718647717406
30
0
40
12.000000000000011
210
0
220
0
230
1
0
ENDSEC
0
SECTION
2
OBJECTS
0
DICTIONARY
5
C
100
AcDbDictionary
3
ACAD_GROUP
350
D
3
ACAD_MLINESTYLE
350
17
0
DICTIONARY
5
D
100
AcDbDictionary
0
DICTIONARY
5
1A
330
C
100
AcDbDictionary
0
DICTIONARY
5
17
100
AcDbDictionary
0
ENDSEC
0
EOF
